<?xml version="1.0" encoding="utf-8"?>
<!-- Generator: Adobe Illustrator 22.0.1, SVG Export Plug-In . SVG Version: 6.00 Build 0)  -->
<svg version="1.1" id="design" xmlns="http://www.w3.org/2000/svg" xmlns:xlink="http://www.w3.org/1999/xlink" x="0px" y="0px"
	 viewBox="0 0 100 100" style="enable-background:new 0 0 100 100;" xml:space="preserve">
<style type="text/css">
	.st0{fill:url(#SVGID_1_);}
	.st1{fill:url(#SVGID_2_);}
	.st2{fill:url(#SVGID_3_);}
	.st3{fill:url(#SVGID_4_);}
</style>
<g>
	<linearGradient id="SVGID_1_" gradientUnits="userSpaceOnUse" x1="40.0063" y1="87" x2="40.0063" y2="14.2233">
		<stop  offset="0" style="stop-color:#FBB040"/>
		<stop  offset="1" style="stop-color:#FFD545"/>
	</linearGradient>
	<path class="st0" d="M40,43.4c-1.8,0-3.3,1.5-3.3,3.3s1.5,3.3,3.3,3.3s3.3-1.5,3.3-3.3S41.8,43.4,40,43.4z"/>
	<linearGradient id="SVGID_2_" gradientUnits="userSpaceOnUse" x1="26.1598" y1="87" x2="26.1598" y2="14.2233">
		<stop  offset="0" style="stop-color:#FBB040"/>
		<stop  offset="1" style="stop-color:#FFD545"/>
	</linearGradient>
	<path class="st1" d="M26.2,43.4c-1.8,0-3.3,1.5-3.3,3.3s1.5,3.3,3.3,3.3s3.3-1.5,3.3-3.3S28,43.4,26.2,43.4z"/>
	<linearGradient id="SVGID_3_" gradientUnits="userSpaceOnUse" x1="53.8529" y1="87" x2="53.8529" y2="14.2233">
		<stop  offset="0" style="stop-color:#FBB040"/>
		<stop  offset="1" style="stop-color:#FFD545"/>
	</linearGradient>
	<path class="st2" d="M53.9,49.9c1.8,0,3.3-1.5,3.3-3.3s-1.5-3.3-3.3-3.3s-3.3,1.5-3.3,3.3S52,49.9,53.9,49.9z"/>
	<linearGradient id="SVGID_4_" gradientUnits="userSpaceOnUse" x1="50" y1="87" x2="50" y2="14.2233">
		<stop  offset="0" style="stop-color:#FBB040"/>
		<stop  offset="1" style="stop-color:#FFD545"/>
	</linearGradient>
	<path class="st3" d="M100,48.9c0-15.6-15.9-28.2-35.5-28.2c-0.5,0-1,0-1.5,0C56.4,17.1,48.5,15,40,15C18,15,0,29.2,0,46.6
		c0,8.2,3.9,16,11.1,21.9c0.4,2.2,1.1,7.9-1.5,11.7c-0.6,0.8-0.7,1.9-0.2,2.9c0.4,0.9,1.3,1.6,2.3,1.7c0.8,0.1,1.5,0.2,2.2,0.2
		c6.9,0,12.3-4.4,15.5-7.8c3.5,0.7,7,1.1,10.6,1.1c5.2,0,10.2-0.8,14.8-2.2c6.1,1.4,12.7,1.4,18.9,0.1c2.9,3.1,7.6,6.9,13.8,6.9
		c0.7,0,1.3,0,2-0.1c1-0.1,1.9-0.8,2.3-1.7c0.4-0.9,0.3-2-0.2-2.9c-2-2.9-1.8-7.4-1.3-9.9C96.5,63.1,100,56.2,100,48.9z M29.1,71
		c-1.1-0.3-2.3,0.1-3,1c-1.8,2.3-5.1,5.6-9.4,6.7c1.5-5.7,0.2-11.5,0-12.5c-0.1-0.7-0.5-1.3-1.1-1.7C9.4,59.7,6,53.3,6,46.6
		C6,32.5,21.2,20.9,40,20.9c7.8,0,14.9,2,20.7,5.3c0,0,0,0,0.1,0c2.1,1.2,4,2.6,5.6,4.1c0.1,0.1,0.1,0.1,0.2,0.2
		c0.3,0.3,0.6,0.5,0.8,0.8c0.2,0.2,0.3,0.4,0.5,0.5c0.2,0.2,0.3,0.3,0.5,0.5c0.2,0.2,0.4,0.5,0.6,0.7c0.1,0.1,0.2,0.2,0.3,0.4
		c0.2,0.3,0.4,0.5,0.6,0.8c0.1,0.1,0.1,0.2,0.2,0.2c0.9,1.3,1.7,2.7,2.4,4.2c0,0.1,0.1,0.2,0.1,0.3c0.1,0.3,0.2,0.6,0.3,0.8
		c0.1,0.2,0.1,0.3,0.2,0.5c0.1,0.3,0.2,0.5,0.2,0.8c0.1,0.2,0.1,0.4,0.2,0.6c0.1,0.2,0.1,0.5,0.2,0.7c0.1,0.2,0.1,0.5,0.1,0.7
		c0,0.2,0.1,0.4,0.1,0.6c0,0.3,0.1,0.6,0.1,0.9c0,0.2,0,0.3,0.1,0.5c0,0.5,0.1,0.9,0.1,1.4c0,0.6,0,1.1-0.1,1.7c0,0.1,0,0.3,0,0.4
		c-0.1,0.6-0.1,1.1-0.2,1.6c0,0,0,0,0,0c-0.1,0.6-0.3,1.2-0.4,1.8c0,0,0,0.1,0,0.1c-1.3,4.2-3.9,8.1-7.6,11.3c0,0,0,0,0,0
		c-1.1,0.9-2.2,1.8-3.4,2.6c0,0,0,0-0.1,0c-2.5,1.6-5.3,2.9-8.4,4c0,0,0,0,0,0c-4.2,1.4-8.8,2.2-13.7,2.2
		C36.3,72.4,32.6,71.9,29.1,71z M85.7,64.4c-0.5,0.4-0.9,0.9-1,1.6c-0.1,0.3-1.4,5.4-0.2,10.7c-3.3-1.1-6-3.8-7.5-5.6
		c-0.6-0.7-1.4-1.1-2.3-1.1c-0.2,0-0.5,0-0.7,0.1c-2.8,0.7-5.7,1.1-8.7,1.2c6.1-3.9,10.5-9.1,12.9-15c0-0.1,0.1-0.1,0.1-0.2
		c0.1-0.4,0.3-0.8,0.4-1.2c0.1-0.2,0.1-0.3,0.2-0.5c0.1-0.3,0.2-0.7,0.3-1c0.1-0.2,0.1-0.5,0.2-0.7c0.1-0.3,0.1-0.6,0.2-0.9
		c0.1-0.3,0.1-0.6,0.2-0.9c0-0.2,0.1-0.5,0.1-0.7c0-0.4,0.1-0.7,0.1-1.1c0-0.2,0-0.4,0.1-0.6c0-0.6,0.1-1.1,0.1-1.7c0-0.5,0-1,0-1.5
		c0-0.2,0-0.4,0-0.6c0-0.3,0-0.5-0.1-0.8c0-0.3-0.1-0.5-0.1-0.8c0-0.2-0.1-0.4-0.1-0.6c-0.1-0.3-0.1-0.6-0.2-0.9
		c0-0.1,0-0.2-0.1-0.2c-0.5-2.1-1.2-4.1-2.1-6c0,0,0-0.1-0.1-0.1c-0.2-0.4-0.4-0.7-0.6-1.1c0-0.1-0.1-0.2-0.1-0.2
		c-0.2-0.3-0.4-0.7-0.6-1c-0.2-0.4-0.5-0.8-0.8-1.2c0,0,0,0,0-0.1c-1-1.5-2.2-2.9-3.5-4.3C84.5,29.7,94,38.5,94,48.9
		C94,54.7,91.1,60.2,85.7,64.4z"/>
</g>
</svg>
